General
General
Format : Matroska
Format version : Version 2
File size : 875 MiB
Duration : 2h 2mn
Overall bit rate : 995 Kbps
Encoded date : UTC 2012-01-19 11:34:26
Writing application : mkvmerge v4.3.0 ('Escape from the Island') built on Sep 5 2010 10:30:51
Writing library : libebml v1.0.0 + libmatroska v1.0.0

Video
ID : 1
Format : AVC
Format/Info : Advanced Video Codec
Format profile : High@L3.1
Format settings, CABAC : Yes
Format settings, ReFrames : 5 frames
Muxing mode : Header stripping
Codec ID : V_MPEG4/ISO/AVC
Duration : 2h 2mn
Bit rate : 850 Kbps
Width : 1 280 pixels
Height : 540 pixels
Display aspect ratio : 2.35:1
Frame rate : 25.000 fps
Color space : YUV
Chroma subsampling : 4:2:0
Bit depth : 8 bits
Scan type : Progressive
Bits/(Pixel*Frame) : 0.049
Stream size : 731 MiB (84%)
Title : James Bond-World.Is.Not.Enough Dual Audio [Eng-Hindi]720p~JAGJIT639~KHARAY-=KSRR=-
\

Audio #1
ID : 2
Format : MPEG Audio
Format version : Version 2
Format profile : Layer 3
Mode : Joint stereo
Mode extension : MS Stereo
Muxing mode : Header stripping
Codec ID : A_MPEG/L3
Codec ID/Hint : MP3
Duration : 2h 2mn
Bit rate mode : Constant
Bit rate : 48.0 Kbps
Channel(s) : 2 channels
Sampling rate : 22.05 KHz
Compression mode : Lossy
Delay relative to video : 1s 300ms
Stream size : 42.2 MiB (5%)
Title : English Audio -=KSRR=-
Language : English

Audio #2
ID : 3
Format : MPEG Audio
Format version : Version 1
Format profile : Layer 3
Mode : Joint stereo
Mode extension : MS Stereo
Muxing mode : Header stripping
Codec ID : A_MPEG/L3
Codec ID/Hint : MP3
Duration : 2h 2mn
Bit rate mode : Constant
Bit rate : 96.0 Kbps
Channel(s) : 2 channels
Sampling rate : 32.0 KHz
Compression mode : Lossy
Delay relative to video : 1s 500ms
Stream size : 84.2 MiB (10%)
Title : Hindi audio -=KSRR=-
Writing library : LAME3.98r
Encoding settings : -m j -V 4 -q 2 -lowpass 15.1 -b 96
Language : Hindi

Screen
 
http://postimg.com/58000/photo-57837.jpg
 
http://postimg.com/58000/photo-57839.jpg
 
http://postimg.com/58000/photo-57840.jpg
 
http://postimg.com/58000/photo-57841.jpg
 
http://postimg.com/58000/photo-57844.jpg